ACLR_SUBJECT03_HOPP01_kinetics.mot
version=1
nRows=18
nColumns=19
inDegrees=yes
endheader
time	ground_force_vx	ground_force_vy	ground_force_vz	ground_force_px	ground_force_py	ground_force_pz	1_ground_force_vx	1_ground_force_vy	1_ground_force_vz	1_ground_force_px	1_ground_force_py	1_ground_force_pz	ground_torque_x	ground_torque_y	ground_torque_z	1_ground_torque_x	1_ground_torque_y	1_ground_torque_z
      0.00000000	      0.00000000	     -0.00000000	      0.00000000	      1.89959741	      0.00000000	      0.02072727	      0.00000000	      0.00000000	      0.00000000	      1.57507670	      0.00000000	     -0.26034528	      0.00000000	      0.00000000	      0.00000000	      0.00000000	      0.00000000	      0.00000000
      0.00041667	      0.00000000	     -0.00000000	      0.00000000	      1.89831412	      0.00000000	      0.02045163	      0.00000000	      0.00000000	      0.00000000	      1.57507670	      0.00000000	     -0.26034528	      0.00000000	      0.00000000	      0.00000000	      0.00000000	      0.00000000	      0.00000000
      0.00083333	      0.00000000	     -0.00000000	      0.00000000	      1.89701438	      0.00000000	      0.02017244	      0.00000000	      0.00000000	      0.00000000	      1.57507670	      0.00000000	     -0.26034528	      0.00000000	      0.00000000	      0.00000000	      0.00000000	      0.00000000	      0.00000000
      0.00125000	      0.00000000	     -0.00000000	      0.00000000	      1.89569414	      0.00000000	      0.01988887	      0.00000000	      0.00000000	      0.00000000	      1.57507670	      0.00000000	     -0.26034528	      0.00000000	      0.00000000	      0.00000000	      0.00000000	      0.00000000	      0.00000000
      0.00166667	      0.00000000	     -0.00000000	      0.00000000	      1.89434946	      0.00000000	      0.01960005	      0.00000000	      0.00000000	      0.00000000	      1.57507670	      0.00000000	     -0.26034528	      0.00000000	      0.00000000	      0.00000000	      0.00000000	      0.00000000	      0.00000000
      0.00208333	      0.00000000	     -0.00000000	      0.00000000	      1.89297605	      0.00000000	      0.01930506	      0.00000000	      0.00000000	      0.00000000	      1.57507670	      0.00000000	     -0.26034528	      0.00000000	      0.00000000	      0.00000000	      0.00000000	      0.00000000	      0.00000000
      0.00250000	      0.00000000	     -0.00000000	      0.00000000	      1.89156926	      0.00000000	      0.01900288	      0.00000000	      0.00000000	      0.00000000	      1.57507670	      0.00000000	     -0.26034528	      0.00000000	      0.00000000	      0.00000000	      0.00000000	      0.00000000	      0.00000000
      0.00291667	      0.00000000	     -0.00000000	      0.00000000	      1.89012384	      0.00000000	      0.01869243	      0.00000000	      0.00000000	      0.00000000	      1.57507670	      0.00000000	     -0.26034528	      0.00000000	      0.00000000	      0.00000000	      0.00000000	      0.00000000	      0.00000000
      0.00333333	      0.00000000	     -0.00000000	      0.00000000	      1.88863444	      0.00000000	      0.01837250	      0.00000000	      0.00000000	      0.00000000	      1.57507670	      0.00000000	     -0.26034528	      0.00000000	      0.00000000	      0.00000000	      0.00000000	      0.00000000	      0.00000000
      0.00375000	      0.00000000	     -0.00000000	      0.00000000	      1.88709462	      0.00000000	      0.01804178	      0.00000000	      0.00000000	      0.00000000	      1.57507670	      0.00000000	     -0.26034528	      0.00000000	      0.00000000	      0.00000000	      0.00000000	      0.00000000	      0.00000000
      0.00416667	      0.00000000	     -0.00000000	      0.00000000	      1.88549781	      0.00000000	      0.01769878	      0.00000000	      0.00000000	      0.00000000	      1.57507670	      0.00000000	     -0.26034528	      0.00000000	      0.00000000	      0.00000000	      0.00000000	      0.00000000	      0.00000000
      0.00458333	      0.00000000	     -0.00000000	      0.00000000	      1.88383603	      0.00000000	      0.01734186	      0.00000000	      0.00000000	      0.00000000	      1.57507670	      0.00000000	     -0.26034528	      0.00000000	      0.00000000	      0.00000000	      0.00000000	      0.00000000	      0.00000000
      0.00500000	      0.00000000	     -0.00000000	      0.00000000	      1.88210082	      0.00000000	      0.01696915	      0.00000000	      0.00000000	      0.00000000	      1.57507670	      0.00000000	     -0.26034528	      0.00000000	      0.00000000	      0.00000000	      0.00000000	      0.00000000	      0.00000000
      0.00541667	      0.00000000	     -0.00000000	      0.00000000	      1.88028216	      0.00000000	      0.01657852	      0.00000000	      0.00000000	      0.00000000	      1.57507670	      0.00000000	     -0.26034528	      0.00000000	      0.00000000	      0.00000000	      0.00000000	      0.00000000	      0.00000000
      0.00583333	      0.00000000	     -0.00000000	      0.00000000	      1.87836885	      0.00000000	      0.01616754	      0.00000000	      0.00000000	      0.00000000	      1.57507670	      0.00000000	     -0.26034528	      0.00000000	      0.00000000	      0.00000000	      0.00000000	      0.00000000	      0.00000000
      0.00625000	      0.00000000	     -0.00000000	      0.00000000	      1.87634766	      0.00000000	      0.01573342	      0.00000000	      0.00000000	      0.00000000	      1.57507670	      0.00000000	     -0.26034528	      0.00000000	      0.00000000	      0.00000000	      0.00000000	      0.00000000	      0.00000000
      0.00666667	      0.00000000	     -0.00000000	      0.00000000	      1.87420356	      0.00000000	      0.01527288	      0.00000000	      0.00000000	      0.00000000	      1.57507670	      0.00000000	     -0.26034528	      0.00000000	      0.00000000	      0.00000000	      0.00000000	      0.00000000	      0.00000000
      0.00708333	      0.00000000	     -0.00000000	      0.00000000	      1.87191868	      0.00000000	      0.01478211	      0.00000000	      0.00000000	      0.00000000	      1.57507670	      0.00000000	     -0.26034528	      0.00000000	      0.00000000	      0.00000000	      0.00000000	      0.00000000	      0.00000000
